#!OML:ASF F:\VICON\USERDATA\INSTALL\rory3\rory3.ASF
:FULLY-SPECIFIED
:DEGREES
93
root 1.0562052270690745 17.92678598387235 36.81599246053487 -3.2464498903989893 -0.5033041523016153 -4.834743542450143
lfemur -6.1328725002839795 -1.1444324199015063 -15.304700599495627
ltibia 56.37708607438172
lfoot -13.671313697834217 -4.796344454487299
ltoes -9.580682928896342
rfemur -8.602081980339639 3.8810338012727446 29.376628540850046
rtibia 21.587814648218092
rfoot -1.1822824638365903 -7.710179473773568
rtoes 8.010483045126938
lowerback 10.53504636661999 0.22206491983778356 3.167596303324479
upperback -0.10120969001659118 0.9297784566636164 2.384401738100019
thorax -6.26286372113424 0.46223184819779883 1.1234927106768935
lowerneck -16.577793366685473 -3.3975855358840263 -1.4499108002267644
upperneck 21.463613424533936 -4.598974088686945 0.7836270247169572
head 9.598608009654901 -2.167803949095071 -0.08066301575517068
lclavicle -2.7003079518196953e-15 -2.151714706253747e-15
lhumerus -28.31368616561316 2.155771670910202 81.1826556544544
lradius 25.830698173165388
lwrist 11.503719640564338
lhand -29.723463181177053 18.931961632794586
lfingers 7.125020000000001
lthumb -2.985329531717205 49.431837474759206
rclavicle -2.700307951777794e-15 -2.1517147062246525e-15
rhumerus -29.172500105510064 -17.798343038353877 -76.98591949565986
rradius 26.049720692908974
rwrist 4.9789584512210485
rhand -17.929547372893122 22.19289572971822
rfingers 7.125020000000001
rthumb 8.46351966380647 -7.181868808004461
94
root 1.059057930485543 17.94054147723072 37.25636045700151 -3.2075181217788096 -0.19559756750526996 -4.95944412220943
lfemur -7.044632233471827 -1.1579244280842058 -15.269142168641315
ltibia 55.95377398559767
lfoot -14.06616971041635 -4.644551032502729
ltoes -8.7027593280852
rfemur -7.678435164828714 3.700685432987862 29.452324042609604
rtibia 21.585477527548743
rfoot -1.1106104013362357 -7.633803703191988
rtoes 7.700705141080244
lowerback 10.5073360625321 0.3251619142784079 3.4383716235853545
upperback -0.1578438759041178 1.1391246669922832 2.3926407273203294
thorax -6.273125627675614 0.5640046521607911 0.8867457250179307
lowerneck -16.50891382285766 -3.402559613640087 -1.442349241412926
upperneck 21.440457249842886 -4.609565823432711 0.77571202489679
head 9.584431900160762 -2.17271608332895 -0.08831643640199557
lclavicle -2.7003079518148347e-15 -2.151714706250824e-15
lhumerus -27.70262954564675 2.0168957820611944 81.22225056896524
lradius 26.23342287372289
lwrist 11.57789895344809
lhand -29.62283359144056 18.959896743549898
lfingers 7.125020000000001
lthumb -2.8003620437251135 49.6170188493897
rclavicle -2.7003079517715255e-15 -2.151714706220715e-15
rhumerus -29.631421288341535 -18.047949844433628 -76.85347704754079
rradius 25.973554963854493
rwrist 4.658719770865534
rhand -17.929825673263686 22.254253389081544
rfingers 7.125020000000001
rthumb 8.490435482969199 -6.9112275657208135
95
root 1.0670618178631261 17.95517060713082 37.66567892847769 -3.1680472773089634 0.09457989596765648 -4.980590078694886
lfemur -7.681975215273544 -1.30807274335653 -15.443302659170065
ltibia 55.30874839047557
lfoot -14.464741884925925 -4.568131493675093
ltoes -6.075052716503011
rfemur -6.787073171125604 3.518565020185089 29.437449592999744
rtibia 21.52883562437368
rfoot -1.0170160278453393 -7.591835067896477
rtoes 7.596880987105529
lowerback 10.495104029726978 0.39232478517445946 3.5160228713197075
upperback -0.2366925247299984 1.2880476252250113 2.3862194650543125
thorax -6.307996638776366 0.6223036004798378 0.6413212550561479
lowerneck -16.410157357964614 -3.4056746841826526 -1.4285309196258842
upperneck 21.49867048170038 -4.620194334024824 0.7334037314433338
head 9.603298657558705 -2.177395648131465 -0.108093487262752
lclavicle -2.700307951822784e-15 -2.151714706256643e-15
lhumerus -27.465552743116113 1.5133533669570873 81.12531787652856
lradius 26.69310888517709
lwrist 11.547059981299482
lhand -29.34369412548719 18.71405132403386
lfingers 7.125020000000001
lthumb -2.458657399773158 49.41526506956015
rclavicle -2.700307951761279e-15 -2.1517147062141594e-15
rhumerus -29.97808589372271 -18.273806187456067 -76.92606501970516
rradius 25.874837820876124
rwrist 4.479351935317437
rhand -17.919959976609388 22.369201552336385
rfingers 7.125020000000001
rthumb 8.367791381724022 -6.746929494885992
96
root 1.0594433791837419 17.96049458735397 37.726946363888445 -3.242632089337827 0.23297919574338943 -4.845070368213317
lfemur -7.837841269949801 -1.4530146466238738 -15.784026042675075
ltibia 54.50088036803993
lfoot -14.784582018694701 -4.515346146350515
ltoes -8.620427416721673
rfemur -6.044722783186101 3.3630364520331844 29.305135952219025
rtibia 21.80772831597427
rfoot -0.8678449041179475 -7.638747390989787
rtoes 7.178911042059602
lowerback 10.498054026195144 0.48230339506131426 3.42851252714848
upperback -0.23474512845443185 1.371486963403468 2.3473095023588515
thorax -6.27147084679019 0.6681399572930525 0.5809500940200777
lowerneck -16.40870480864471 -3.425610847323246 -1.43282606200022
upperneck 21.624969255132182 -4.654890011579035 0.7051005939619277
head 9.663528559306947 -2.1891119679442355 -0.12847141465502301
lclavicle -2.700307951820512e-15 -2.151714706255479e-15
lhumerus -27.057486305777033 1.3107835631865163 81.12273535322453
lradius 27.177798503990758
lwrist 11.473932731588315
lhand -29.28593012026843 18.454026874664585
lfingers 7.125020000000001
lthumb -2.3870486079018414 49.15529128703866
rclavicle -2.70030795176468e-15 -2.1517147062168495e-15
rhumerus -30.520001665394062 -18.583359440906456 -77.01641724114839
rradius 25.824432034095242
rwrist 4.362598894563534
rhand -17.96993768254596 22.39124882180077
rfingers 7.125020000000001
rthumb 8.30547210085554 -6.484750447537062
97
root 1.0516907480229978 17.97844643174084 37.82655944571549 -3.0517441283610585 0.4925034071233104 -4.97738285423276
lfemur -8.188057137861936 -1.5919172515330016 -15.890020496852554
ltibia 53.598356692644515
lfoot -15.148721205362712 -4.434834953743231
ltoes -10.714042034864406
rfemur -5.471642656266596 3.2295576639870758 29.327155838826116
rtibia 21.632318332667726
rfoot -0.6437093406764518 -7.747353957541683
rtoes 5.413751688600948
lowerback 10.424125118768519 0.5588810128605792 3.61054157423751
upperback -0.27033862782441975 1.5173062467585037 2.311577889385148
thorax -6.276103087071556 0.7285192483888293 0.4184749754837004
lowerneck -16.39976079046889 -3.439084959128803 -1.4352604031354341
upperneck 21.710371967128133 -4.692197319566725 0.6660086109700921
head 9.715257093853953 -2.201254044633399 -0.15551990426250314
lclavicle -2.700307951811035e-15 -2.151714706249392e-15
lhumerus -27.05477455502164 0.8413721783061048 80.97072186981875
lradius 27.641136996235968
lwrist 11.182967581137731
lhand -29.062205474693435 18.444411234368875
lfingers 7.125020000000001
lthumb -2.0623403525037243 49.2362928140903
rclavicle -2.700307951764394e-15 -2.1517147062170486e-15
rhumerus -31.174477024578046 -18.899801966930422 -77.0621525976928
rradius 25.83727061282596
rwrist 4.132423092550917
rhand -17.998215438246785 22.46791640483183
rfingers 7.125020000000001
rthumb 8.152341843538688 -6.36995532648412
98
root 1.0486903645294248 17.968285012316663 37.50899809717356 -3.32687991254825 0.5086457033849274 -4.534385825411247
lfemur -8.108744516489498 -1.7371743658270984 -16.51676832161174
ltibia 52.543806598896786
lfoot -15.437589798523593 -4.324387461201374
ltoes -10.096019239247587
rfemur -5.204949719646873 3.1770014705554463 28.89288054639444
rtibia 22.24268398750514
rfoot -0.3355020071976158 -7.8833279339083795
rtoes 6.48977711252448
lowerback 10.383984038521755 0.6290456625421061 3.2409213930125307
upperback -0.27178780280092346 1.5474179695681898 2.2376970888368097
thorax -6.233893022825393 0.7476689541418985 0.33965590646148547
lowerneck -16.35913060602719 -3.450326498708146 -1.4340104791103538
upperneck 21.806926573597305 -4.73020268598174 0.6938917477125777
head 9.771067867463909 -2.2138696888681038 -0.15642205492206637
lclavicle -2.700307951806213e-15 -2.1517147062463627e-15
lhumerus -26.865310515863438 0.6873169445380292 80.93540515190534
lradius 28.01493514140806
lwrist 10.899669709768048
lhand -29.120735672741326 17.348036688293476
lfingers 7.125020000000001
lthumb -2.2409166011224713 47.90609239318571
rclavicle -2.700307951759203e-15 -2.1517147062137204e-15
rhumerus -31.779248515798507 -19.158256526120056 -77.14380046453
rradius 25.8340259729725
rwrist 4.023905166007911
rhand -18.045426929357088 22.507960721922032
rfingers 7.125020000000001
rthumb 8.143749246593995 -6.030969875696224
